<svg xmlns="http://www.w3.org/2000/svg" viewBox="0 0 64 64" width="96" height="96" role="img" aria-label="Portolan">
  <g fill="none" stroke="#5b6cf0" stroke-width="1.4" opacity=".42">
    <line x1="32" y1="32" x2="32" y2="7"/><line x1="32" y1="32" x2="57" y2="32"/>
    <line x1="32" y1="32" x2="32" y2="57"/><line x1="32" y1="32" x2="7" y2="32"/>
    <line x1="32" y1="32" x2="50.5" y2="13.5"/><line x1="32" y1="32" x2="50.5" y2="50.5"/>
    <line x1="32" y1="32" x2="13.5" y2="50.5"/><line x1="32" y1="32" x2="13.5" y2="13.5"/>
  </g>
  <g fill="#5b6cf0" opacity=".6">
    <circle cx="32" cy="7" r="2.4"/><circle cx="57" cy="32" r="2.4"/><circle cx="32" cy="57" r="2.4"/><circle cx="7" cy="32" r="2.4"/>
    <circle cx="50.5" cy="13.5" r="2"/><circle cx="50.5" cy="50.5" r="2"/><circle cx="13.5" cy="50.5" r="2"/><circle cx="13.5" cy="13.5" r="2"/>
  </g>
  <path fill="#5b6cf0" d="M32 9 L36.5 27.5 L54.5 32 L36.5 36.5 L32 55 L27.5 36.5 L9.5 32 L27.5 27.5 Z"/>
  <circle cx="32" cy="32" r="4" fill="#fff" stroke="#5b6cf0" stroke-width="2.2"/>
</svg>
